# xmcd
#
# Track frame offsets: 
#        150
#        10987
#        23362
#        35137
#        45862
#        58762
#        68887
#        83737
#        97575
#        112950
#        124275
#        135975
#        149250
#        160312
#        172650
#        186412
#
# Disc length: 2610 seconds
#
# Revision: 0
# Processed by: cddbd v1.5.2PL0 Copyright (c) Steve Scherf et al.
# Submitted via: ExactAudioCopy v0.95b3
#
DISCID=c40a3010
DTITLE=Katahdin Valley Boys - Working Man
DYEAR=2006
DGENRE=Bluegrass
TTITLE0=Alone and Broken Hearted
TTITLE1=If I Could Only Go Back Home Again
TTITLE2=Swing That Hammer
TTITLE3=Helen
TTITLE4=Rose of My Heart
TTITLE5=Old Man In the Park
TTITLE6=Working Man
TTITLE7=Black Diamond
TTITLE8=Greenville Trestle High
TTITLE9=Redwood Hill
TTITLE10=Thirty Spikes To the Rail
TTITLE11=Molly
TTITLE12=Don't Come Running Back to Me
TTITLE13=Hobo On a Freight Train
TTITLE14=Dear Old Mother
TTITLE15=Home Is Where the Heart Is
EXTD=
EXTT0=
EXTT1=
EXTT2=Swing That Hammer
EXTT3=
EXTT4=
EXTT5=
EXTT6=
EXTT7=
EXTT8=
EXTT9=
EXTT10=
EXTT11=
EXTT12=
EXTT13=
EXTT14=
EXTT15=
PLAYORDER=
